<svg width="26" height="24" viewBox="0 0 26 24" fill="none" xmlns="http://www.w3.org/2000/svg">
<path fill-rule="evenodd" clip-rule="evenodd" d="M26 12.2729C26 11.422 25.9156 10.6038 25.7588 9.81833H13.2653V14.4601H20.4045C20.0969 15.9601 19.1623 17.231 17.7574 18.0819V21.0928H22.0445C24.5529 19.0037 26 15.9274 26 12.2729Z" fill="#4285F4"/>
<path fill-rule="evenodd" clip-rule="evenodd" d="M13.2652 24C16.8468 24 19.8496 22.9254 22.0444 21.0927L17.7573 18.0818C16.5694 18.8018 15.0499 19.2273 13.2652 19.2273C9.81015 19.2273 6.88575 17.1164 5.84262 14.28H1.4108V17.3891C3.59354 21.3109 8.07963 24 13.2652 24Z" fill="#34A853"/>
<path fill-rule="evenodd" clip-rule="evenodd" d="M5.84277 14.28C5.57746 13.5601 5.42672 12.791 5.42672 12.0001C5.42672 11.2092 5.57746 10.4401 5.84277 9.72008V6.61101H1.41095C0.512523 8.231 0 10.0637 0 12.0001C0 13.9364 0.512523 15.7691 1.41095 17.3891L5.84277 14.28Z" fill="#FBBC05"/>
<path fill-rule="evenodd" clip-rule="evenodd" d="M13.2638 4.7727C15.2112 4.7727 16.9596 5.37815 18.3342 6.56723L22.1386 3.12543C19.8415 1.18908 16.8391 0 13.2638 0C8.07889 0 3.5933 2.68907 1.4108 6.61087L5.84212 9.71994C6.88514 6.88359 9.80922 4.7727 13.2638 4.7727Z" fill="#EA4335"/>
</svg>
